<?xml version="1.0" encoding="UTF-8" standalone="yes"?>
<!DOCTYPE svg PUBLIC "-//W3C//DTD SVG 1.0//EN" "http://www.w3.org/TR/2001/REC-SVG-20010904/DTD/svg10.dtd">
<svg font-family="Arial" font-size="8" font-weight="normal" height="150" width="466" xmlns="http://www.w3.org/2000/svg" xmlns:svg="http://www.w3.org/2000/svg" xmlns:xlink="http://www.w3.org/1999/xlink">
	<g style="font-size: 8px; stroke: black" transform="translate(0,110)">
		<line x1="40" x2="456" y1="0" y2="0" />
		<line x1="56" x2="56" y1="0" y2="5" />
		<text style="stroke: none" x="46" y="12">1</text>
		<line x1="72" x2="72" y1="0" y2="5" />
		<text style="stroke: none" x="62" y="12">2</text>
		<line x1="88" x2="88" y1="0" y2="5" />
		<text style="stroke: none" x="78" y="12">3</text>
		<line x1="104" x2="104" y1="0" y2="5" />
		<text style="stroke: none" x="94" y="12">4</text>
		<line x1="120" x2="120" y1="0" y2="5" />
		<text style="stroke: none" x="110" y="12">5</text>
		<line x1="136" x2="136" y1="0" y2="5" />
		<text style="stroke: none" x="126" y="12">6</text>
		<line x1="152" x2="152" y1="0" y2="5" />
		<text style="stroke: none" x="142" y="12">7</text>
		<line x1="168" x2="168" y1="0" y2="5" />
		<text style="stroke: none" x="158" y="12">8</text>
		<line x1="184" x2="184" y1="0" y2="5" />
		<text style="stroke: none" x="174" y="12">9</text>
		<line x1="200" x2="200" y1="0" y2="5" />
		<text style="stroke: none" x="188" y="12">10</text>
		<line x1="216" x2="216" y1="0" y2="5" />
		<text style="stroke: none" x="204" y="12">11</text>
		<line x1="232" x2="232" y1="0" y2="5" />
		<text style="stroke: none" x="220" y="12">12</text>
		<line x1="248" x2="248" y1="0" y2="5" />
		<text style="stroke: none" x="236" y="12">13</text>
		<line x1="264" x2="264" y1="0" y2="5" />
		<text style="stroke: none" x="252" y="12">14</text>
		<line x1="280" x2="280" y1="0" y2="5" />
		<text style="stroke: none" x="268" y="12">15</text>
		<line x1="296" x2="296" y1="0" y2="5" />
		<text style="stroke: none" x="284" y="12">16</text>
		<line x1="312" x2="312" y1="0" y2="5" />
		<text style="stroke: none" x="300" y="12">17</text>
		<line x1="328" x2="328" y1="0" y2="5" />
		<text style="stroke: none" x="316" y="12">18</text>
		<line x1="344" x2="344" y1="0" y2="5" />
		<text style="stroke: none" x="332" y="12">19</text>
		<line x1="360" x2="360" y1="0" y2="5" />
		<text style="stroke: none" x="348" y="12">20</text>
		<line x1="376" x2="376" y1="0" y2="5" />
		<text style="stroke: none" x="364" y="12">21</text>
		<line x1="392" x2="392" y1="0" y2="5" />
		<text style="stroke: none" x="380" y="12">22</text>
		<line x1="408" x2="408" y1="0" y2="5" />
		<text style="stroke: none" x="396" y="12">23</text>
		<line x1="424" x2="424" y1="0" y2="5" />
		<text style="stroke: none" x="412" y="12">24</text>
		<line x1="440" x2="440" y1="0" y2="5" />
		<text style="stroke: none" x="428" y="12">25</text>
		<line x1="456" x2="456" y1="0" y2="5" />
		<text style="stroke: none" x="444" y="12">26</text>
	</g>
	<g transform="translate(40,108)">
		<path d="m5.7068752,6.75v-2.07288h-1.706v-0.8581h2.7397136v3.31351q-0.6048047,0.42904,-1.3336719,0.65132q-0.7288672,0.21711,-1.5559506,0.21711q-1.8092448,0,-2.8327605,-1.05453q-1.018,-1.06,-1.018,-2.946q0,-1.89196,1.01834638183921,-2.94649q1.0235157,-1.0597,2.8327605,-1.0597q0.7547136,0,1.4318881,0.1861q0.6823438,0.18609,1.2561329,0.54794v1.11139q-0.5789584,-0.49108,-1.2302865,-0.7392q-0.6513282,-0.24813,-1.3698569,-0.24813q-1.4163802,0,-2.1297396,0.7909q-0.7081902,0.7909,-0.7081902,2.35719q0,1.56112,0.7081902,2.35202q0.7133594,0.79089,2.1297396,0.79089q0.553112,0,0.9873308,-0.093q0.4342188,-0.0982,0.7805599,-0.29982z" style="fill: gold; stroke: none" transform="scale(2.0,0.25)" />
	</g>
	<g transform="translate(40,106)">
		<path d="m3.669375,1.05 -1.4698958,3.98588h2.945zm-0.612,-1.068h1.229l3.052,8.01h-1.126l-0.73,-2.055h-3.61l-0.7295833,2.05464h-1.143z" style="fill: lime; stroke: none" transform="scale(2.0,0.25)" />
	</g>
	<g transform="translate(40,100)">
		<path d="m6.3,0.72v1.10105q-0.5272656,-0.49108,-1.1269011,-0.73403q-0.5944661,-0.24296,-1.2664714,-0.24296q-1.3233333,0,-2.0263542,0.81158q-0.7030209,0.8064,-0.7030209,2.33651q0,1.52493,0.7030209,2.33651q0.7030209,0.8064,2.0263542,0.8064q0.6720053,0,1.2664714,-0.24295q0.5996355,-0.24296,1.1269011,-0.73404v1.09072q-0.5479427,0.37219,-1.1630859,0.55828q-0.609974,0.18609,-1.2923178,0.18609q-1.7523829,0,-2.7603907,-1.07004q-1.008,-1.075,-1.008,-2.931q0,-1.86094,1.00800788183921,-2.93098q1.0080078,-1.07521,2.7603907,-1.07521q0.6926823,0,1.3026563,0.1861q0.6151432,0.18092,1.1527474,0.54794z" style="fill: blue; stroke: none" transform="scale(2.0,0.75)" />
	</g>
	<g transform="translate(40,78)">
		<path d="m0,0h6.7754688v0.91198h-2.843v7.09735h-1.089v-7.09735h-2.843z" style="fill: red; stroke: none" transform="scale(2.0,2.75)" />
	</g>
	<g transform="translate(56,107)">
		<path d="m5.7068752,6.75v-2.07288h-1.706v-0.8581h2.7397136v3.31351q-0.6048047,0.42904,-1.3336719,0.65132q-0.7288672,0.21711,-1.5559506,0.21711q-1.8092448,0,-2.8327605,-1.05453q-1.018,-1.06,-1.018,-2.946q0,-1.89196,1.01834638183921,-2.94649q1.0235157,-1.0597,2.8327605,-1.0597q0.7547136,0,1.4318881,0.1861q0.6823438,0.18609,1.2561329,0.54794v1.11139q-0.5789584,-0.49108,-1.2302865,-0.7392q-0.6513282,-0.24813,-1.3698569,-0.24813q-1.4163802,0,-2.1297396,0.7909q-0.7081902,0.7909,-0.7081902,2.35719q0,1.56112,0.7081902,2.35202q0.7133594,0.79089,2.1297396,0.79089q0.553112,0,0.9873308,-0.093q0.4342188,-0.0982,0.7805599,-0.29982z" style="fill: gold; stroke: none" transform="scale(2.0,0.375)" />
	</g>
	<g transform="translate(56,104)">
		<path d="m6.3,0.72v1.10105q-0.5272656,-0.49108,-1.1269011,-0.73403q-0.5944661,-0.24296,-1.2664714,-0.24296q-1.3233333,0,-2.0263542,0.81158q-0.7030209,0.8064,-0.7030209,2.33651q0,1.52493,0.7030209,2.33651q0.7030209,0.8064,2.0263542,0.8064q0.6720053,0,1.2664714,-0.24295q0.5996355,-0.24296,1.1269011,-0.73404v1.09072q-0.5479427,0.37219,-1.1630859,0.55828q-0.609974,0.18609,-1.2923178,0.18609q-1.7523829,0,-2.7603907,-1.07004q-1.008,-1.075,-1.008,-2.931q0,-1.86094,1.00800788183921,-2.93098q1.0080078,-1.07521,2.7603907,-1.07521q0.6926823,0,1.3026563,0.1861q0.6151432,0.18092,1.1527474,0.54794z" style="fill: blue; stroke: none" transform="scale(2.0,0.375)" />
	</g>
	<g transform="translate(56,101)">
		<path d="m0,0h6.7754688v0.91198h-2.843v7.09735h-1.089v-7.09735h-2.843z" style="fill: red; stroke: none" transform="scale(2.0,0.375)" />
	</g>
	<g transform="translate(56,80)">
		<path d="m3.669375,1.05 -1.4698958,3.98588h2.945zm-0.612,-1.068h1.229l3.052,8.01h-1.126l-0.73,-2.055h-3.61l-0.7295833,2.05464h-1.143z" style="fill: lime; stroke: none" transform="scale(2.0,2.625)" />
	</g>
	<g transform="translate(72,107)">
		<path d="m3.669375,1.05 -1.4698958,3.98588h2.945zm-0.612,-1.068h1.229l3.052,8.01h-1.126l-0.73,-2.055h-3.61l-0.7295833,2.05464h-1.143z" style="fill: lime; stroke: none" transform="scale(2.0,0.375)" />
	</g>
	<g transform="translate(72,104)">
		<path d="m0,0h6.7754688v0.91198h-2.843v7.09735h-1.089v-7.09735h-2.843z" style="fill: red; stroke: none" transform="scale(2.0,0.375)" />
	</g>
	<g transform="translate(72,100)">
		<path d="m6.3,0.72v1.10105q-0.5272656,-0.49108,-1.1269011,-0.73403q-0.5944661,-0.24296,-1.2664714,-0.24296q-1.3233333,0,-2.0263542,0.81158q-0.7030209,0.8064,-0.7030209,2.33651q0,1.52493,0.7030209,2.33651q0.7030209,0.8064,2.0263542,0.8064q0.6720053,0,1.2664714,-0.24295q0.5996355,-0.24296,1.1269011,-0.73404v1.09072q-0.5479427,0.37219,-1.1630859,0.55828q-0.609974,0.18609,-1.2923178,0.18609q-1.7523829,0,-2.7603907,-1.07004q-1.008,-1.075,-1.008,-2.931q0,-1.86094,1.00800788183921,-2.93098q1.0080078,-1.07521,2.7603907,-1.07521q0.6926823,0,1.3026563,0.1861q0.6151432,0.18092,1.1527474,0.54794z" style="fill: blue; stroke: none" transform="scale(2.0,0.5)" />
	</g>
	<g transform="translate(72,72)">
		<path d="m5.7068752,6.75v-2.07288h-1.706v-0.8581h2.7397136v3.31351q-0.6048047,0.42904,-1.3336719,0.65132q-0.7288672,0.21711,-1.5559506,0.21711q-1.8092448,0,-2.8327605,-1.05453q-1.018,-1.06,-1.018,-2.946q0,-1.89196,1.01834638183921,-2.94649q1.0235157,-1.0597,2.8327605,-1.0597q0.7547136,0,1.4318881,0.1861q0.6823438,0.18609,1.2561329,0.54794v1.11139q-0.5789584,-0.49108,-1.2302865,-0.7392q-0.6513282,-0.24813,-1.3698569,-0.24813q-1.4163802,0,-2.1297396,0.7909q-0.7081902,0.7909,-0.7081902,2.35719q0,1.56112,0.7081902,2.35202q0.7133594,0.79089,2.1297396,0.79089q0.553112,0,0.9873308,-0.093q0.4342188,-0.0982,0.7805599,-0.29982z" style="fill: gold; stroke: none" transform="scale(2.0,3.5)" />
	</g>
	<g transform="translate(88,110)">
		<path d="m6.3,0.72v1.10105q-0.5272656,-0.49108,-1.1269011,-0.73403q-0.5944661,-0.24296,-1.2664714,-0.24296q-1.3233333,0,-2.0263542,0.81158q-0.7030209,0.8064,-0.7030209,2.33651q0,1.52493,0.7030209,2.33651q0.7030209,0.8064,2.0263542,0.8064q0.6720053,0,1.2664714,-0.24295q0.5996355,-0.24296,1.1269011,-0.73404v1.09072q-0.5479427,0.37219,-1.1630859,0.55828q-0.609974,0.18609,-1.2923178,0.18609q-1.7523829,0,-2.7603907,-1.07004q-1.008,-1.075,-1.008,-2.931q0,-1.86094,1.00800788183921,-2.93098q1.0080078,-1.07521,2.7603907,-1.07521q0.6926823,0,1.3026563,0.1861q0.6151432,0.18092,1.1527474,0.54794z" style="fill: blue; stroke: none" transform="scale(2.0,0)" />
	</g>
	<g transform="translate(88,106)">
		<path d="m0,0h6.7754688v0.91198h-2.843v7.09735h-1.089v-7.09735h-2.843z" style="fill: red; stroke: none" transform="scale(2.0,0.5)" />
	</g>
	<g transform="translate(88,101)">
		<path d="m3.669375,1.05 -1.4698958,3.98588h2.945zm-0.612,-1.068h1.229l3.052,8.01h-1.126l-0.73,-2.055h-3.61l-0.7295833,2.05464h-1.143z" style="fill: lime; stroke: none" transform="scale(2.0,0.625)" />
	</g>
	<g transform="translate(88,92)">
		<path d="m5.7068752,6.75v-2.07288h-1.706v-0.8581h2.7397136v3.31351q-0.6048047,0.42904,-1.3336719,0.65132q-0.7288672,0.21711,-1.5559506,0.21711q-1.8092448,0,-2.8327605,-1.05453q-1.018,-1.06,-1.018,-2.946q0,-1.89196,1.01834638183921,-2.94649q1.0235157,-1.0597,2.8327605,-1.0597q0.7547136,0,1.4318881,0.1861q0.6823438,0.18609,1.2561329,0.54794v1.11139q-0.5789584,-0.49108,-1.2302865,-0.7392q-0.6513282,-0.24813,-1.3698569,-0.24813q-1.4163802,0,-2.1297396,0.7909q-0.7081902,0.7909,-0.7081902,2.35719q0,1.56112,0.7081902,2.35202q0.7133594,0.79089,2.1297396,0.79089q0.553112,0,0.9873308,-0.093q0.4342188,-0.0982,0.7805599,-0.29982z" style="fill: gold; stroke: none" transform="scale(2.0,1.125)" />
	</g>
	<g transform="translate(104,107)">
		<path d="m0,0h6.7754688v0.91198h-2.843v7.09735h-1.089v-7.09735h-2.843z" style="fill: red; stroke: none" transform="scale(2.0,0.375)" />
	</g>
	<g transform="translate(104,104)">
		<path d="m3.669375,1.05 -1.4698958,3.98588h2.945zm-0.612,-1.068h1.229l3.052,8.01h-1.126l-0.73,-2.055h-3.61l-0.7295833,2.05464h-1.143z" style="fill: lime; stroke: none" transform="scale(2.0,0.375)" />
	</g>
	<g transform="translate(104,100)">
		<path d="m6.3,0.72v1.10105q-0.5272656,-0.49108,-1.1269011,-0.73403q-0.5944661,-0.24296,-1.2664714,-0.24296q-1.3233333,0,-2.0263542,0.81158q-0.7030209,0.8064,-0.7030209,2.33651q0,1.52493,0.7030209,2.33651q0.7030209,0.8064,2.0263542,0.8064q0.6720053,0,1.2664714,-0.24295q0.5996355,-0.24296,1.1269011,-0.73404v1.09072q-0.5479427,0.37219,-1.1630859,0.55828q-0.609974,0.18609,-1.2923178,0.18609q-1.7523829,0,-2.7603907,-1.07004q-1.008,-1.075,-1.008,-2.931q0,-1.86094,1.00800788183921,-2.93098q1.0080078,-1.07521,2.7603907,-1.07521q0.6926823,0,1.3026563,0.1861q0.6151432,0.18092,1.1527474,0.54794z" style="fill: blue; stroke: none" transform="scale(2.0,0.5)" />
	</g>
	<g transform="translate(104,68)">
		<path d="m5.7068752,6.75v-2.07288h-1.706v-0.8581h2.7397136v3.31351q-0.6048047,0.42904,-1.3336719,0.65132q-0.7288672,0.21711,-1.5559506,0.21711q-1.8092448,0,-2.8327605,-1.05453q-1.018,-1.06,-1.018,-2.946q0,-1.89196,1.01834638183921,-2.94649q1.0235157,-1.0597,2.8327605,-1.0597q0.7547136,0,1.4318881,0.1861q0.6823438,0.18609,1.2561329,0.54794v1.11139q-0.5789584,-0.49108,-1.2302865,-0.7392q-0.6513282,-0.24813,-1.3698569,-0.24813q-1.4163802,0,-2.1297396,0.7909q-0.7081902,0.7909,-0.7081902,2.35719q0,1.56112,0.7081902,2.35202q0.7133594,0.79089,2.1297396,0.79089q0.553112,0,0.9873308,-0.093q0.4342188,-0.0982,0.7805599,-0.29982z" style="fill: gold; stroke: none" transform="scale(2.0,4)" />
	</g>
	<g transform="translate(120,109)">
		<path d="m6.3,0.72v1.10105q-0.5272656,-0.49108,-1.1269011,-0.73403q-0.5944661,-0.24296,-1.2664714,-0.24296q-1.3233333,0,-2.0263542,0.81158q-0.7030209,0.8064,-0.7030209,2.33651q0,1.52493,0.7030209,2.33651q0.7030209,0.8064,2.0263542,0.8064q0.6720053,0,1.2664714,-0.24295q0.5996355,-0.24296,1.1269011,-0.73404v1.09072q-0.5479427,0.37219,-1.1630859,0.55828q-0.609974,0.18609,-1.2923178,0.18609q-1.7523829,0,-2.7603907,-1.07004q-1.008,-1.075,-1.008,-2.931q0,-1.86094,1.00800788183921,-2.93098q1.0080078,-1.07521,2.7603907,-1.07521q0.6926823,0,1.3026563,0.1861q0.6151432,0.18092,1.1527474,0.54794z" style="fill: blue; stroke: none" transform="scale(2.0,0.125)" />
	</g>
	<g transform="translate(120,108)">
		<path d="m5.7068752,6.75v-2.07288h-1.706v-0.8581h2.7397136v3.31351q-0.6048047,0.42904,-1.3336719,0.65132q-0.7288672,0.21711,-1.5559506,0.21711q-1.8092448,0,-2.8327605,-1.05453q-1.018,-1.06,-1.018,-2.946q0,-1.89196,1.01834638183921,-2.94649q1.0235157,-1.0597,2.8327605,-1.0597q0.7547136,0,1.4318881,0.1861q0.6823438,0.18609,1.2561329,0.54794v1.11139q-0.5789584,-0.49108,-1.2302865,-0.7392q-0.6513282,-0.24813,-1.3698569,-0.24813q-1.4163802,0,-2.1297396,0.7909q-0.7081902,0.7909,-0.7081902,2.35719q0,1.56112,0.7081902,2.35202q0.7133594,0.79089,2.1297396,0.79089q0.553112,0,0.9873308,-0.093q0.4342188,-0.0982,0.7805599,-0.29982z" style="fill: gold; stroke: none" transform="scale(2.0,0.125)" />
	</g>
	<g transform="translate(120,107)">
		<path d="m3.669375,1.05 -1.4698958,3.98588h2.945zm-0.612,-1.068h1.229l3.052,8.01h-1.126l-0.73,-2.055h-3.61l-0.7295833,2.05464h-1.143z" style="fill: lime; stroke: none" transform="scale(2.0,0.125)" />
	</g>
	<g transform="translate(120,105)">
		<path d="m0,0h6.7754688v0.91198h-2.843v7.09735h-1.089v-7.09735h-2.843z" style="fill: red; stroke: none" transform="scale(2.0,0.25)" />
	</g>
	<g transform="translate(136,110)">
		<path d="m5.7068752,6.75v-2.07288h-1.706v-0.8581h2.7397136v3.31351q-0.6048047,0.42904,-1.3336719,0.65132q-0.7288672,0.21711,-1.5559506,0.21711q-1.8092448,0,-2.8327605,-1.05453q-1.018,-1.06,-1.018,-2.946q0,-1.89196,1.01834638183921,-2.94649q1.0235157,-1.0597,2.8327605,-1.0597q0.7547136,0,1.4318881,0.1861q0.6823438,0.18609,1.2561329,0.54794v1.11139q-0.5789584,-0.49108,-1.2302865,-0.7392q-0.6513282,-0.24813,-1.3698569,-0.24813q-1.4163802,0,-2.1297396,0.7909q-0.7081902,0.7909,-0.7081902,2.35719q0,1.56112,0.7081902,2.35202q0.7133594,0.79089,2.1297396,0.79089q0.553112,0,0.9873308,-0.093q0.4342188,-0.0982,0.7805599,-0.29982z" style="fill: gold; stroke: none" transform="scale(2.0,0)" />
	</g>
	<g transform="translate(136,109)">
		<path d="m6.3,0.72v1.10105q-0.5272656,-0.49108,-1.1269011,-0.73403q-0.5944661,-0.24296,-1.2664714,-0.24296q-1.3233333,0,-2.0263542,0.81158q-0.7030209,0.8064,-0.7030209,2.33651q0,1.52493,0.7030209,2.33651q0.7030209,0.8064,2.0263542,0.8064q0.6720053,0,1.2664714,-0.24295q0.5996355,-0.24296,1.1269011,-0.73404v1.09072q-0.5479427,0.37219,-1.1630859,0.55828q-0.609974,0.18609,-1.2923178,0.18609q-1.7523829,0,-2.7603907,-1.07004q-1.008,-1.075,-1.008,-2.931q0,-1.86094,1.00800788183921,-2.93098q1.0080078,-1.07521,2.7603907,-1.07521q0.6926823,0,1.3026563,0.1861q0.6151432,0.18092,1.1527474,0.54794z" style="fill: blue; stroke: none" transform="scale(2.0,0.125)" />
	</g>
	<g transform="translate(136,95)">
		<path d="m3.669375,1.05 -1.4698958,3.98588h2.945zm-0.612,-1.068h1.229l3.052,8.01h-1.126l-0.73,-2.055h-3.61l-0.7295833,2.05464h-1.143z" style="fill: lime; stroke: none" transform="scale(2.0,1.75)" />
	</g>
	<g transform="translate(136,61)">
		<path d="m0,0h6.7754688v0.91198h-2.843v7.09735h-1.089v-7.09735h-2.843z" style="fill: red; stroke: none" transform="scale(2.0,4.25)" />
	</g>
	<g transform="translate(152,108)">
		<path d="m6.3,0.72v1.10105q-0.5272656,-0.49108,-1.1269011,-0.73403q-0.5944661,-0.24296,-1.2664714,-0.24296q-1.3233333,0,-2.0263542,0.81158q-0.7030209,0.8064,-0.7030209,2.33651q0,1.52493,0.7030209,2.33651q0.7030209,0.8064,2.0263542,0.8064q0.6720053,0,1.2664714,-0.24295q0.5996355,-0.24296,1.1269011,-0.73404v1.09072q-0.5479427,0.37219,-1.1630859,0.55828q-0.609974,0.18609,-1.2923178,0.18609q-1.7523829,0,-2.7603907,-1.07004q-1.008,-1.075,-1.008,-2.931q0,-1.86094,1.00800788183921,-2.93098q1.0080078,-1.07521,2.7603907,-1.07521q0.6926823,0,1.3026563,0.1861q0.6151432,0.18092,1.1527474,0.54794z" style="fill: blue; stroke: none" transform="scale(2.0,0.25)" />
	</g>
	<g transform="translate(152,104)">
		<path d="m5.7068752,6.75v-2.07288h-1.706v-0.8581h2.7397136v3.31351q-0.6048047,0.42904,-1.3336719,0.65132q-0.7288672,0.21711,-1.5559506,0.21711q-1.8092448,0,-2.8327605,-1.05453q-1.018,-1.06,-1.018,-2.946q0,-1.89196,1.01834638183921,-2.94649q1.0235157,-1.0597,2.8327605,-1.0597q0.7547136,0,1.4318881,0.1861q0.6823438,0.18609,1.2561329,0.54794v1.11139q-0.5789584,-0.49108,-1.2302865,-0.7392q-0.6513282,-0.24813,-1.3698569,-0.24813q-1.4163802,0,-2.1297396,0.7909q-0.7081902,0.7909,-0.7081902,2.35719q0,1.56112,0.7081902,2.35202q0.7133594,0.79089,2.1297396,0.79089q0.553112,0,0.9873308,-0.093q0.4342188,-0.0982,0.7805599,-0.29982z" style="fill: gold; stroke: none" transform="scale(2.0,0.5)" />
	</g>
	<g transform="translate(152,100)">
		<path d="m3.669375,1.05 -1.4698958,3.98588h2.945zm-0.612,-1.068h1.229l3.052,8.01h-1.126l-0.73,-2.055h-3.61l-0.7295833,2.05464h-1.143z" style="fill: lime; stroke: none" transform="scale(2.0,0.5)" />
	</g>
	<g transform="translate(152,81)">
		<path d="m0,0h6.7754688v0.91198h-2.843v7.09735h-1.089v-7.09735h-2.843z" style="fill: red; stroke: none" transform="scale(2.0,2.375)" />
	</g>
	<g transform="translate(168,109)">
		<path d="m3.669375,1.05 -1.4698958,3.98588h2.945zm-0.612,-1.068h1.229l3.052,8.01h-1.126l-0.73,-2.055h-3.61l-0.7295833,2.05464h-1.143z" style="fill: lime; stroke: none" transform="scale(2.0,0.125)" />
	</g>
	<g transform="translate(168,108)">
		<path d="m0,0h6.7754688v0.91198h-2.843v7.09735h-1.089v-7.09735h-2.843z" style="fill: red; stroke: none" transform="scale(2.0,0.125)" />
	</g>
	<g transform="translate(168,106)">
		<path d="m5.7068752,6.75v-2.07288h-1.706v-0.8581h2.7397136v3.31351q-0.6048047,0.42904,-1.3336719,0.65132q-0.7288672,0.21711,-1.5559506,0.21711q-1.8092448,0,-2.8327605,-1.05453q-1.018,-1.06,-1.018,-2.946q0,-1.89196,1.01834638183921,-2.94649q1.0235157,-1.0597,2.8327605,-1.0597q0.7547136,0,1.4318881,0.1861q0.6823438,0.18609,1.2561329,0.54794v1.11139q-0.5789584,-0.49108,-1.2302865,-0.7392q-0.6513282,-0.24813,-1.3698569,-0.24813q-1.4163802,0,-2.1297396,0.7909q-0.7081902,0.7909,-0.7081902,2.35719q0,1.56112,0.7081902,2.35202q0.7133594,0.79089,2.1297396,0.79089q0.553112,0,0.9873308,-0.093q0.4342188,-0.0982,0.7805599,-0.29982z" style="fill: gold; stroke: none" transform="scale(2.0,0.25)" />
	</g>
	<g transform="translate(168,102)">
		<path d="m6.3,0.72v1.10105q-0.5272656,-0.49108,-1.1269011,-0.73403q-0.5944661,-0.24296,-1.2664714,-0.24296q-1.3233333,0,-2.0263542,0.81158q-0.7030209,0.8064,-0.7030209,2.33651q0,1.52493,0.7030209,2.33651q0.7030209,0.8064,2.0263542,0.8064q0.6720053,0,1.2664714,-0.24295q0.5996355,-0.24296,1.1269011,-0.73404v1.09072q-0.5479427,0.37219,-1.1630859,0.55828q-0.609974,0.18609,-1.2923178,0.18609q-1.7523829,0,-2.7603907,-1.07004q-1.008,-1.075,-1.008,-2.931q0,-1.86094,1.00800788183921,-2.93098q1.0080078,-1.07521,2.7603907,-1.07521q0.6926823,0,1.3026563,0.1861q0.6151432,0.18092,1.1527474,0.54794z" style="fill: blue; stroke: none" transform="scale(2.0,0.5)" />
	</g>
	<g transform="translate(184,109)">
		<path d="m5.7068752,6.75v-2.07288h-1.706v-0.8581h2.7397136v3.31351q-0.6048047,0.42904,-1.3336719,0.65132q-0.7288672,0.21711,-1.5559506,0.21711q-1.8092448,0,-2.8327605,-1.05453q-1.018,-1.06,-1.018,-2.946q0,-1.89196,1.01834638183921,-2.94649q1.0235157,-1.0597,2.8327605,-1.0597q0.7547136,0,1.4318881,0.1861q0.6823438,0.18609,1.2561329,0.54794v1.11139q-0.5789584,-0.49108,-1.2302865,-0.7392q-0.6513282,-0.24813,-1.3698569,-0.24813q-1.4163802,0,-2.1297396,0.7909q-0.7081902,0.7909,-0.7081902,2.35719q0,1.56112,0.7081902,2.35202q0.7133594,0.79089,2.1297396,0.79089q0.553112,0,0.9873308,-0.093q0.4342188,-0.0982,0.7805599,-0.29982z" style="fill: gold; stroke: none" transform="scale(2.0,0.125)" />
	</g>
	<g transform="translate(184,107)">
		<path d="m3.669375,1.05 -1.4698958,3.98588h2.945zm-0.612,-1.068h1.229l3.052,8.01h-1.126l-0.73,-2.055h-3.61l-0.7295833,2.05464h-1.143z" style="fill: lime; stroke: none" transform="scale(2.0,0.25)" />
	</g>
	<g transform="translate(184,104)">
		<path d="m0,0h6.7754688v0.91198h-2.843v7.09735h-1.089v-7.09735h-2.843z" style="fill: red; stroke: none" transform="scale(2.0,0.375)" />
	</g>
	<g transform="translate(184,98)">
		<path d="m6.3,0.72v1.10105q-0.5272656,-0.49108,-1.1269011,-0.73403q-0.5944661,-0.24296,-1.2664714,-0.24296q-1.3233333,0,-2.0263542,0.81158q-0.7030209,0.8064,-0.7030209,2.33651q0,1.52493,0.7030209,2.33651q0.7030209,0.8064,2.0263542,0.8064q0.6720053,0,1.2664714,-0.24295q0.5996355,-0.24296,1.1269011,-0.73404v1.09072q-0.5479427,0.37219,-1.1630859,0.55828q-0.609974,0.18609,-1.2923178,0.18609q-1.7523829,0,-2.7603907,-1.07004q-1.008,-1.075,-1.008,-2.931q0,-1.86094,1.00800788183921,-2.93098q1.0080078,-1.07521,2.7603907,-1.07521q0.6926823,0,1.3026563,0.1861q0.6151432,0.18092,1.1527474,0.54794z" style="fill: blue; stroke: none" transform="scale(2.0,0.75)" />
	</g>
	<g transform="translate(200,108)">
		<path d="m0,0h6.7754688v0.91198h-2.843v7.09735h-1.089v-7.09735h-2.843z" style="fill: red; stroke: none" transform="scale(2.0,0.25)" />
	</g>
	<g transform="translate(200,106)">
		<path d="m6.3,0.72v1.10105q-0.5272656,-0.49108,-1.1269011,-0.73403q-0.5944661,-0.24296,-1.2664714,-0.24296q-1.3233333,0,-2.0263542,0.81158q-0.7030209,0.8064,-0.7030209,2.33651q0,1.52493,0.7030209,2.33651q0.7030209,0.8064,2.0263542,0.8064q0.6720053,0,1.2664714,-0.24295q0.5996355,-0.24296,1.1269011,-0.73404v1.09072q-0.5479427,0.37219,-1.1630859,0.55828q-0.609974,0.18609,-1.2923178,0.18609q-1.7523829,0,-2.7603907,-1.07004q-1.008,-1.075,-1.008,-2.931q0,-1.86094,1.00800788183921,-2.93098q1.0080078,-1.07521,2.7603907,-1.07521q0.6926823,0,1.3026563,0.1861q0.6151432,0.18092,1.1527474,0.54794z" style="fill: blue; stroke: none" transform="scale(2.0,0.25)" />
	</g>
	<g transform="translate(200,101)">
		<path d="m5.7068752,6.75v-2.07288h-1.706v-0.8581h2.7397136v3.31351q-0.6048047,0.42904,-1.3336719,0.65132q-0.7288672,0.21711,-1.5559506,0.21711q-1.8092448,0,-2.8327605,-1.05453q-1.018,-1.06,-1.018,-2.946q0,-1.89196,1.01834638183921,-2.94649q1.0235157,-1.0597,2.8327605,-1.0597q0.7547136,0,1.4318881,0.1861q0.6823438,0.18609,1.2561329,0.54794v1.11139q-0.5789584,-0.49108,-1.2302865,-0.7392q-0.6513282,-0.24813,-1.3698569,-0.24813q-1.4163802,0,-2.1297396,0.7909q-0.7081902,0.7909,-0.7081902,2.35719q0,1.56112,0.7081902,2.35202q0.7133594,0.79089,2.1297396,0.79089q0.553112,0,0.9873308,-0.093q0.4342188,-0.0982,0.7805599,-0.29982z" style="fill: gold; stroke: none" transform="scale(2.0,0.625)" />
	</g>
	<g transform="translate(200,87)">
		<path d="m3.669375,1.05 -1.4698958,3.98588h2.945zm-0.612,-1.068h1.229l3.052,8.01h-1.126l-0.73,-2.055h-3.61l-0.7295833,2.05464h-1.143z" style="fill: lime; stroke: none" transform="scale(2.0,1.75)" />
	</g>
	<g transform="translate(216,109)">
		<path d="m6.3,0.72v1.10105q-0.5272656,-0.49108,-1.1269011,-0.73403q-0.5944661,-0.24296,-1.2664714,-0.24296q-1.3233333,0,-2.0263542,0.81158q-0.7030209,0.8064,-0.7030209,2.33651q0,1.52493,0.7030209,2.33651q0.7030209,0.8064,2.0263542,0.8064q0.6720053,0,1.2664714,-0.24295q0.5996355,-0.24296,1.1269011,-0.73404v1.09072q-0.5479427,0.37219,-1.1630859,0.55828q-0.609974,0.18609,-1.2923178,0.18609q-1.7523829,0,-2.7603907,-1.07004q-1.008,-1.075,-1.008,-2.931q0,-1.86094,1.00800788183921,-2.93098q1.0080078,-1.07521,2.7603907,-1.07521q0.6926823,0,1.3026563,0.1861q0.6151432,0.18092,1.1527474,0.54794z" style="fill: blue; stroke: none" transform="scale(2.0,0.125)" />
	</g>
	<g transform="translate(216,106)">
		<path d="m5.7068752,6.75v-2.07288h-1.706v-0.8581h2.7397136v3.31351q-0.6048047,0.42904,-1.3336719,0.65132q-0.7288672,0.21711,-1.5559506,0.21711q-1.8092448,0,-2.8327605,-1.05453q-1.018,-1.06,-1.018,-2.946q0,-1.89196,1.01834638183921,-2.94649q1.0235157,-1.0597,2.8327605,-1.0597q0.7547136,0,1.4318881,0.1861q0.6823438,0.18609,1.2561329,0.54794v1.11139q-0.5789584,-0.49108,-1.2302865,-0.7392q-0.6513282,-0.24813,-1.3698569,-0.24813q-1.4163802,0,-2.1297396,0.7909q-0.7081902,0.7909,-0.7081902,2.35719q0,1.56112,0.7081902,2.35202q0.7133594,0.79089,2.1297396,0.79089q0.553112,0,0.9873308,-0.093q0.4342188,-0.0982,0.7805599,-0.29982z" style="fill: gold; stroke: none" transform="scale(2.0,0.375)" />
	</g>
	<g transform="translate(216,101)">
		<path d="m0,0h6.7754688v0.91198h-2.843v7.09735h-1.089v-7.09735h-2.843z" style="fill: red; stroke: none" transform="scale(2.0,0.625)" />
	</g>
	<g transform="translate(216,91)">
		<path d="m3.669375,1.05 -1.4698958,3.98588h2.945zm-0.612,-1.068h1.229l3.052,8.01h-1.126l-0.73,-2.055h-3.61l-0.7295833,2.05464h-1.143z" style="fill: lime; stroke: none" transform="scale(2.0,1.25)" />
	</g>
	<g transform="translate(232,109)">
		<path d="m5.7068752,6.75v-2.07288h-1.706v-0.8581h2.7397136v3.31351q-0.6048047,0.42904,-1.3336719,0.65132q-0.7288672,0.21711,-1.5559506,0.21711q-1.8092448,0,-2.8327605,-1.05453q-1.018,-1.06,-1.018,-2.946q0,-1.89196,1.01834638183921,-2.94649q1.0235157,-1.0597,2.8327605,-1.0597q0.7547136,0,1.4318881,0.1861q0.6823438,0.18609,1.2561329,0.54794v1.11139q-0.5789584,-0.49108,-1.2302865,-0.7392q-0.6513282,-0.24813,-1.3698569,-0.24813q-1.4163802,0,-2.1297396,0.7909q-0.7081902,0.7909,-0.7081902,2.35719q0,1.56112,0.7081902,2.35202q0.7133594,0.79089,2.1297396,0.79089q0.553112,0,0.9873308,-0.093q0.4342188,-0.0982,0.7805599,-0.29982z" style="fill: gold; stroke: none" transform="scale(2.0,0.125)" />
	</g>
	<g transform="translate(232,106)">
		<path d="m6.3,0.72v1.10105q-0.5272656,-0.49108,-1.1269011,-0.73403q-0.5944661,-0.24296,-1.2664714,-0.24296q-1.3233333,0,-2.0263542,0.81158q-0.7030209,0.8064,-0.7030209,2.33651q0,1.52493,0.7030209,2.33651q0.7030209,0.8064,2.0263542,0.8064q0.6720053,0,1.2664714,-0.24295q0.5996355,-0.24296,1.1269011,-0.73404v1.09072q-0.5479427,0.37219,-1.1630859,0.55828q-0.609974,0.18609,-1.2923178,0.18609q-1.7523829,0,-2.7603907,-1.07004q-1.008,-1.075,-1.008,-2.931q0,-1.86094,1.00800788183921,-2.93098q1.0080078,-1.07521,2.7603907,-1.07521q0.6926823,0,1.3026563,0.1861q0.6151432,0.18092,1.1527474,0.54794z" style="fill: blue; stroke: none" transform="scale(2.0,0.375)" />
	</g>
	<g transform="translate(232,100)">
		<path d="m3.669375,1.05 -1.4698958,3.98588h2.945zm-0.612,-1.068h1.229l3.052,8.01h-1.126l-0.73,-2.055h-3.61l-0.7295833,2.05464h-1.143z" style="fill: lime; stroke: none" transform="scale(2.0,0.75)" />
	</g>
	<g transform="translate(232,86)">
		<path d="m0,0h6.7754688v0.91198h-2.843v7.09735h-1.089v-7.09735h-2.843z" style="fill: red; stroke: none" transform="scale(2.0,1.75)" />
	</g>
	<g transform="translate(248,109)">
		<path d="m5.7068752,6.75v-2.07288h-1.706v-0.8581h2.7397136v3.31351q-0.6048047,0.42904,-1.3336719,0.65132q-0.7288672,0.21711,-1.5559506,0.21711q-1.8092448,0,-2.8327605,-1.05453q-1.018,-1.06,-1.018,-2.946q0,-1.89196,1.01834638183921,-2.94649q1.0235157,-1.0597,2.8327605,-1.0597q0.7547136,0,1.4318881,0.1861q0.6823438,0.18609,1.2561329,0.54794v1.11139q-0.5789584,-0.49108,-1.2302865,-0.7392q-0.6513282,-0.24813,-1.3698569,-0.24813q-1.4163802,0,-2.1297396,0.7909q-0.7081902,0.7909,-0.7081902,2.35719q0,1.56112,0.7081902,2.35202q0.7133594,0.79089,2.1297396,0.79089q0.553112,0,0.9873308,-0.093q0.4342188,-0.0982,0.7805599,-0.29982z" style="fill: gold; stroke: none" transform="scale(2.0,0.125)" />
	</g>
	<g transform="translate(248,106)">
		<path d="m6.3,0.72v1.10105q-0.5272656,-0.49108,-1.1269011,-0.73403q-0.5944661,-0.24296,-1.2664714,-0.24296q-1.3233333,0,-2.0263542,0.81158q-0.7030209,0.8064,-0.7030209,2.33651q0,1.52493,0.7030209,2.33651q0.7030209,0.8064,2.0263542,0.8064q0.6720053,0,1.2664714,-0.24295q0.5996355,-0.24296,1.1269011,-0.73404v1.09072q-0.5479427,0.37219,-1.1630859,0.55828q-0.609974,0.18609,-1.2923178,0.18609q-1.7523829,0,-2.7603907,-1.07004q-1.008,-1.075,-1.008,-2.931q0,-1.86094,1.00800788183921,-2.93098q1.0080078,-1.07521,2.7603907,-1.07521q0.6926823,0,1.3026563,0.1861q0.6151432,0.18092,1.1527474,0.54794z" style="fill: blue; stroke: none" transform="scale(2.0,0.375)" />
	</g>
	<g transform="translate(248,103)">
		<path d="m0,0h6.7754688v0.91198h-2.843v7.09735h-1.089v-7.09735h-2.843z" style="fill: red; stroke: none" transform="scale(2.0,0.375)" />
	</g>
	<g transform="translate(248,99)">
		<path d="m3.669375,1.05 -1.4698958,3.98588h2.945zm-0.612,-1.068h1.229l3.052,8.01h-1.126l-0.73,-2.055h-3.61l-0.7295833,2.05464h-1.143z" style="fill: lime; stroke: none" transform="scale(2.0,0.5)" />
	</g>
	<g transform="translate(264,109)">
		<path d="m5.7068752,6.75v-2.07288h-1.706v-0.8581h2.7397136v3.31351q-0.6048047,0.42904,-1.3336719,0.65132q-0.7288672,0.21711,-1.5559506,0.21711q-1.8092448,0,-2.8327605,-1.05453q-1.018,-1.06,-1.018,-2.946q0,-1.89196,1.01834638183921,-2.94649q1.0235157,-1.0597,2.8327605,-1.0597q0.7547136,0,1.4318881,0.1861q0.6823438,0.18609,1.2561329,0.54794v1.11139q-0.5789584,-0.49108,-1.2302865,-0.7392q-0.6513282,-0.24813,-1.3698569,-0.24813q-1.4163802,0,-2.1297396,0.7909q-0.7081902,0.7909,-0.7081902,2.35719q0,1.56112,0.7081902,2.35202q0.7133594,0.79089,2.1297396,0.79089q0.553112,0,0.9873308,-0.093q0.4342188,-0.0982,0.7805599,-0.29982z" style="fill: gold; stroke: none" transform="scale(2.0,0.125)" />
	</g>
	<g transform="translate(264,108)">
		<path d="m3.669375,1.05 -1.4698958,3.98588h2.945zm-0.612,-1.068h1.229l3.052,8.01h-1.126l-0.73,-2.055h-3.61l-0.7295833,2.05464h-1.143z" style="fill: lime; stroke: none" transform="scale(2.0,0.125)" />
	</g>
	<g transform="translate(264,106)">
		<path d="m0,0h6.7754688v0.91198h-2.843v7.09735h-1.089v-7.09735h-2.843z" style="fill: red; stroke: none" transform="scale(2.0,0.25)" />
	</g>
	<g transform="translate(264,103)">
		<path d="m6.3,0.72v1.10105q-0.5272656,-0.49108,-1.1269011,-0.73403q-0.5944661,-0.24296,-1.2664714,-0.24296q-1.3233333,0,-2.0263542,0.81158q-0.7030209,0.8064,-0.7030209,2.33651q0,1.52493,0.7030209,2.33651q0.7030209,0.8064,2.0263542,0.8064q0.6720053,0,1.2664714,-0.24295q0.5996355,-0.24296,1.1269011,-0.73404v1.09072q-0.5479427,0.37219,-1.1630859,0.55828q-0.609974,0.18609,-1.2923178,0.18609q-1.7523829,0,-2.7603907,-1.07004q-1.008,-1.075,-1.008,-2.931q0,-1.86094,1.00800788183921,-2.93098q1.0080078,-1.07521,2.7603907,-1.07521q0.6926823,0,1.3026563,0.1861q0.6151432,0.18092,1.1527474,0.54794z" style="fill: blue; stroke: none" transform="scale(2.0,0.375)" />
	</g>
	<g transform="translate(280,109)">
		<path d="m5.7068752,6.75v-2.07288h-1.706v-0.8581h2.7397136v3.31351q-0.6048047,0.42904,-1.3336719,0.65132q-0.7288672,0.21711,-1.5559506,0.21711q-1.8092448,0,-2.8327605,-1.05453q-1.018,-1.06,-1.018,-2.946q0,-1.89196,1.01834638183921,-2.94649q1.0235157,-1.0597,2.8327605,-1.0597q0.7547136,0,1.4318881,0.1861q0.6823438,0.18609,1.2561329,0.54794v1.11139q-0.5789584,-0.49108,-1.2302865,-0.7392q-0.6513282,-0.24813,-1.3698569,-0.24813q-1.4163802,0,-2.1297396,0.7909q-0.7081902,0.7909,-0.7081902,2.35719q0,1.56112,0.7081902,2.35202q0.7133594,0.79089,2.1297396,0.79089q0.553112,0,0.9873308,-0.093q0.4342188,-0.0982,0.7805599,-0.29982z" style="fill: gold; stroke: none" transform="scale(2.0,0.125)" />
	</g>
	<g transform="translate(280,108)">
		<path d="m0,0h6.7754688v0.91198h-2.843v7.09735h-1.089v-7.09735h-2.843z" style="fill: red; stroke: none" transform="scale(2.0,0.125)" />
	</g>
	<g transform="translate(280,106)">
		<path d="m3.669375,1.05 -1.4698958,3.98588h2.945zm-0.612,-1.068h1.229l3.052,8.01h-1.126l-0.73,-2.055h-3.61l-0.7295833,2.05464h-1.143z" style="fill: lime; stroke: none" transform="scale(2.0,0.25)" />
	</g>
	<g transform="translate(280,103)">
		<path d="m6.3,0.72v1.10105q-0.5272656,-0.49108,-1.1269011,-0.73403q-0.5944661,-0.24296,-1.2664714,-0.24296q-1.3233333,0,-2.0263542,0.81158q-0.7030209,0.8064,-0.7030209,2.33651q0,1.52493,0.7030209,2.33651q0.7030209,0.8064,2.0263542,0.8064q0.6720053,0,1.2664714,-0.24295q0.5996355,-0.24296,1.1269011,-0.73404v1.09072q-0.5479427,0.37219,-1.1630859,0.55828q-0.609974,0.18609,-1.2923178,0.18609q-1.7523829,0,-2.7603907,-1.07004q-1.008,-1.075,-1.008,-2.931q0,-1.86094,1.00800788183921,-2.93098q1.0080078,-1.07521,2.7603907,-1.07521q0.6926823,0,1.3026563,0.1861q0.6151432,0.18092,1.1527474,0.54794z" style="fill: blue; stroke: none" transform="scale(2.0,0.375)" />
	</g>
	<g transform="translate(296,109)">
		<path d="m3.669375,1.05 -1.4698958,3.98588h2.945zm-0.612,-1.068h1.229l3.052,8.01h-1.126l-0.73,-2.055h-3.61l-0.7295833,2.05464h-1.143z" style="fill: lime; stroke: none" transform="scale(2.0,0.125)" />
	</g>
	<g transform="translate(296,108)">
		<path d="m6.3,0.72v1.10105q-0.5272656,-0.49108,-1.1269011,-0.73403q-0.5944661,-0.24296,-1.2664714,-0.24296q-1.3233333,0,-2.0263542,0.81158q-0.7030209,0.8064,-0.7030209,2.33651q0,1.52493,0.7030209,2.33651q0.7030209,0.8064,2.0263542,0.8064q0.6720053,0,1.2664714,-0.24295q0.5996355,-0.24296,1.1269011,-0.73404v1.09072q-0.5479427,0.37219,-1.1630859,0.55828q-0.609974,0.18609,-1.2923178,0.18609q-1.7523829,0,-2.7603907,-1.07004q-1.008,-1.075,-1.008,-2.931q0,-1.86094,1.00800788183921,-2.93098q1.0080078,-1.07521,2.7603907,-1.07521q0.6926823,0,1.3026563,0.1861q0.6151432,0.18092,1.1527474,0.54794z" style="fill: blue; stroke: none" transform="scale(2.0,0.125)" />
	</g>
	<g transform="translate(296,107)">
		<path d="m0,0h6.7754688v0.91198h-2.843v7.09735h-1.089v-7.09735h-2.843z" style="fill: red; stroke: none" transform="scale(2.0,0.125)" />
	</g>
	<g transform="translate(296,104)">
		<path d="m5.7068752,6.75v-2.07288h-1.706v-0.8581h2.7397136v3.31351q-0.6048047,0.42904,-1.3336719,0.65132q-0.7288672,0.21711,-1.5559506,0.21711q-1.8092448,0,-2.8327605,-1.05453q-1.018,-1.06,-1.018,-2.946q0,-1.89196,1.01834638183921,-2.94649q1.0235157,-1.0597,2.8327605,-1.0597q0.7547136,0,1.4318881,0.1861q0.6823438,0.18609,1.2561329,0.54794v1.11139q-0.5789584,-0.49108,-1.2302865,-0.7392q-0.6513282,-0.24813,-1.3698569,-0.24813q-1.4163802,0,-2.1297396,0.7909q-0.7081902,0.7909,-0.7081902,2.35719q0,1.56112,0.7081902,2.35202q0.7133594,0.79089,2.1297396,0.79089q0.553112,0,0.9873308,-0.093q0.4342188,-0.0982,0.7805599,-0.29982z" style="fill: gold; stroke: none" transform="scale(2.0,0.375)" />
	</g>
	<g transform="translate(312,110)">
		<path d="m0,0h6.7754688v0.91198h-2.843v7.09735h-1.089v-7.09735h-2.843z" style="fill: red; stroke: none" transform="scale(2.0,0)" />
	</g>
	<g transform="translate(312,109)">
		<path d="m3.669375,1.05 -1.4698958,3.98588h2.945zm-0.612,-1.068h1.229l3.052,8.01h-1.126l-0.73,-2.055h-3.61l-0.7295833,2.05464h-1.143z" style="fill: lime; stroke: none" transform="scale(2.0,0.125)" />
	</g>
	<g transform="translate(312,108)">
		<path d="m6.3,0.72v1.10105q-0.5272656,-0.49108,-1.1269011,-0.73403q-0.5944661,-0.24296,-1.2664714,-0.24296q-1.3233333,0,-2.0263542,0.81158q-0.7030209,0.8064,-0.7030209,2.33651q0,1.52493,0.7030209,2.33651q0.7030209,0.8064,2.0263542,0.8064q0.6720053,0,1.2664714,-0.24295q0.5996355,-0.24296,1.1269011,-0.73404v1.09072q-0.5479427,0.37219,-1.1630859,0.55828q-0.609974,0.18609,-1.2923178,0.18609q-1.7523829,0,-2.7603907,-1.07004q-1.008,-1.075,-1.008,-2.931q0,-1.86094,1.00800788183921,-2.93098q1.0080078,-1.07521,2.7603907,-1.07521q0.6926823,0,1.3026563,0.1861q0.6151432,0.18092,1.1527474,0.54794z" style="fill: blue; stroke: none" transform="scale(2.0,0.125)" />
	</g>
	<g transform="translate(312,107)">
		<path d="m5.7068752,6.75v-2.07288h-1.706v-0.8581h2.7397136v3.31351q-0.6048047,0.42904,-1.3336719,0.65132q-0.7288672,0.21711,-1.5559506,0.21711q-1.8092448,0,-2.8327605,-1.05453q-1.018,-1.06,-1.018,-2.946q0,-1.89196,1.01834638183921,-2.94649q1.0235157,-1.0597,2.8327605,-1.0597q0.7547136,0,1.4318881,0.1861q0.6823438,0.18609,1.2561329,0.54794v1.11139q-0.5789584,-0.49108,-1.2302865,-0.7392q-0.6513282,-0.24813,-1.3698569,-0.24813q-1.4163802,0,-2.1297396,0.7909q-0.7081902,0.7909,-0.7081902,2.35719q0,1.56112,0.7081902,2.35202q0.7133594,0.79089,2.1297396,0.79089q0.553112,0,0.9873308,-0.093q0.4342188,-0.0982,0.7805599,-0.29982z" style="fill: gold; stroke: none" transform="scale(2.0,0.125)" />
	</g>
	<g transform="translate(328,110)">
		<path d="m6.3,0.72v1.10105q-0.5272656,-0.49108,-1.1269011,-0.73403q-0.5944661,-0.24296,-1.2664714,-0.24296q-1.3233333,0,-2.0263542,0.81158q-0.7030209,0.8064,-0.7030209,2.33651q0,1.52493,0.7030209,2.33651q0.7030209,0.8064,2.0263542,0.8064q0.6720053,0,1.2664714,-0.24295q0.5996355,-0.24296,1.1269011,-0.73404v1.09072q-0.5479427,0.37219,-1.1630859,0.55828q-0.609974,0.18609,-1.2923178,0.18609q-1.7523829,0,-2.7603907,-1.07004q-1.008,-1.075,-1.008,-2.931q0,-1.86094,1.00800788183921,-2.93098q1.0080078,-1.07521,2.7603907,-1.07521q0.6926823,0,1.3026563,0.1861q0.6151432,0.18092,1.1527474,0.54794z" style="fill: blue; stroke: none" transform="scale(2.0,0)" />
	</g>
	<g transform="translate(328,110)">
		<path d="m0,0h6.7754688v0.91198h-2.843v7.09735h-1.089v-7.09735h-2.843z" style="fill: red; stroke: none" transform="scale(2.0,0)" />
	</g>
	<g transform="translate(328,110)">
		<path d="m5.7068752,6.75v-2.07288h-1.706v-0.8581h2.7397136v3.31351q-0.6048047,0.42904,-1.3336719,0.65132q-0.7288672,0.21711,-1.5559506,0.21711q-1.8092448,0,-2.8327605,-1.05453q-1.018,-1.06,-1.018,-2.946q0,-1.89196,1.01834638183921,-2.94649q1.0235157,-1.0597,2.8327605,-1.0597q0.7547136,0,1.4318881,0.1861q0.6823438,0.18609,1.2561329,0.54794v1.11139q-0.5789584,-0.49108,-1.2302865,-0.7392q-0.6513282,-0.24813,-1.3698569,-0.24813q-1.4163802,0,-2.1297396,0.7909q-0.7081902,0.7909,-0.7081902,2.35719q0,1.56112,0.7081902,2.35202q0.7133594,0.79089,2.1297396,0.79089q0.553112,0,0.9873308,-0.093q0.4342188,-0.0982,0.7805599,-0.29982z" style="fill: gold; stroke: none" transform="scale(2.0,0)" />
	</g>
	<g transform="translate(328,110)">
		<path d="m3.669375,1.05 -1.4698958,3.98588h2.945zm-0.612,-1.068h1.229l3.052,8.01h-1.126l-0.73,-2.055h-3.61l-0.7295833,2.05464h-1.143z" style="fill: lime; stroke: none" transform="scale(2.0,0)" />
	</g>
	<g transform="translate(344,109)">
		<path d="m6.3,0.72v1.10105q-0.5272656,-0.49108,-1.1269011,-0.73403q-0.5944661,-0.24296,-1.2664714,-0.24296q-1.3233333,0,-2.0263542,0.81158q-0.7030209,0.8064,-0.7030209,2.33651q0,1.52493,0.7030209,2.33651q0.7030209,0.8064,2.0263542,0.8064q0.6720053,0,1.2664714,-0.24295q0.5996355,-0.24296,1.1269011,-0.73404v1.09072q-0.5479427,0.37219,-1.1630859,0.55828q-0.609974,0.18609,-1.2923178,0.18609q-1.7523829,0,-2.7603907,-1.07004q-1.008,-1.075,-1.008,-2.931q0,-1.86094,1.00800788183921,-2.93098q1.0080078,-1.07521,2.7603907,-1.07521q0.6926823,0,1.3026563,0.1861q0.6151432,0.18092,1.1527474,0.54794z" style="fill: blue; stroke: none" transform="scale(2.0,0.125)" />
	</g>
	<g transform="translate(344,108)">
		<path d="m5.7068752,6.75v-2.07288h-1.706v-0.8581h2.7397136v3.31351q-0.6048047,0.42904,-1.3336719,0.65132q-0.7288672,0.21711,-1.5559506,0.21711q-1.8092448,0,-2.8327605,-1.05453q-1.018,-1.06,-1.018,-2.946q0,-1.89196,1.01834638183921,-2.94649q1.0235157,-1.0597,2.8327605,-1.0597q0.7547136,0,1.4318881,0.1861q0.6823438,0.18609,1.2561329,0.54794v1.11139q-0.5789584,-0.49108,-1.2302865,-0.7392q-0.6513282,-0.24813,-1.3698569,-0.24813q-1.4163802,0,-2.1297396,0.7909q-0.7081902,0.7909,-0.7081902,2.35719q0,1.56112,0.7081902,2.35202q0.7133594,0.79089,2.1297396,0.79089q0.553112,0,0.9873308,-0.093q0.4342188,-0.0982,0.7805599,-0.29982z" style="fill: gold; stroke: none" transform="scale(2.0,0.125)" />
	</g>
	<g transform="translate(344,106)">
		<path d="m0,0h6.7754688v0.91198h-2.843v7.09735h-1.089v-7.09735h-2.843z" style="fill: red; stroke: none" transform="scale(2.0,0.25)" />
	</g>
	<g transform="translate(344,104)">
		<path d="m3.669375,1.05 -1.4698958,3.98588h2.945zm-0.612,-1.068h1.229l3.052,8.01h-1.126l-0.73,-2.055h-3.61l-0.7295833,2.05464h-1.143z" style="fill: lime; stroke: none" transform="scale(2.0,0.25)" />
	</g>
	<g transform="translate(360,109)">
		<path d="m6.3,0.72v1.10105q-0.5272656,-0.49108,-1.1269011,-0.73403q-0.5944661,-0.24296,-1.2664714,-0.24296q-1.3233333,0,-2.0263542,0.81158q-0.7030209,0.8064,-0.7030209,2.33651q0,1.52493,0.7030209,2.33651q0.7030209,0.8064,2.0263542,0.8064q0.6720053,0,1.2664714,-0.24295q0.5996355,-0.24296,1.1269011,-0.73404v1.09072q-0.5479427,0.37219,-1.1630859,0.55828q-0.609974,0.18609,-1.2923178,0.18609q-1.7523829,0,-2.7603907,-1.07004q-1.008,-1.075,-1.008,-2.931q0,-1.86094,1.00800788183921,-2.93098q1.0080078,-1.07521,2.7603907,-1.07521q0.6926823,0,1.3026563,0.1861q0.6151432,0.18092,1.1527474,0.54794z" style="fill: blue; stroke: none" transform="scale(2.0,0.125)" />
	</g>
	<g transform="translate(360,108)">
		<path d="m5.7068752,6.75v-2.07288h-1.706v-0.8581h2.7397136v3.31351q-0.6048047,0.42904,-1.3336719,0.65132q-0.7288672,0.21711,-1.5559506,0.21711q-1.8092448,0,-2.8327605,-1.05453q-1.018,-1.06,-1.018,-2.946q0,-1.89196,1.01834638183921,-2.94649q1.0235157,-1.0597,2.8327605,-1.0597q0.7547136,0,1.4318881,0.1861q0.6823438,0.18609,1.2561329,0.54794v1.11139q-0.5789584,-0.49108,-1.2302865,-0.7392q-0.6513282,-0.24813,-1.3698569,-0.24813q-1.4163802,0,-2.1297396,0.7909q-0.7081902,0.7909,-0.7081902,2.35719q0,1.56112,0.7081902,2.35202q0.7133594,0.79089,2.1297396,0.79089q0.553112,0,0.9873308,-0.093q0.4342188,-0.0982,0.7805599,-0.29982z" style="fill: gold; stroke: none" transform="scale(2.0,0.125)" />
	</g>
	<g transform="translate(360,107)">
		<path d="m3.669375,1.05 -1.4698958,3.98588h2.945zm-0.612,-1.068h1.229l3.052,8.01h-1.126l-0.73,-2.055h-3.61l-0.7295833,2.05464h-1.143z" style="fill: lime; stroke: none" transform="scale(2.0,0.125)" />
	</g>
	<g transform="translate(360,105)">
		<path d="m0,0h6.7754688v0.91198h-2.843v7.09735h-1.089v-7.09735h-2.843z" style="fill: red; stroke: none" transform="scale(2.0,0.25)" />
	</g>
	<g transform="translate(376,110)">
		<path d="m3.669375,1.05 -1.4698958,3.98588h2.945zm-0.612,-1.068h1.229l3.052,8.01h-1.126l-0.73,-2.055h-3.61l-0.7295833,2.05464h-1.143z" style="fill: lime; stroke: none" transform="scale(2.0,0)" />
	</g>
	<g transform="translate(376,110)">
		<path d="m5.7068752,6.75v-2.07288h-1.706v-0.8581h2.7397136v3.31351q-0.6048047,0.42904,-1.3336719,0.65132q-0.7288672,0.21711,-1.5559506,0.21711q-1.8092448,0,-2.8327605,-1.05453q-1.018,-1.06,-1.018,-2.946q0,-1.89196,1.01834638183921,-2.94649q1.0235157,-1.0597,2.8327605,-1.0597q0.7547136,0,1.4318881,0.1861q0.6823438,0.18609,1.2561329,0.54794v1.11139q-0.5789584,-0.49108,-1.2302865,-0.7392q-0.6513282,-0.24813,-1.3698569,-0.24813q-1.4163802,0,-2.1297396,0.7909q-0.7081902,0.7909,-0.7081902,2.35719q0,1.56112,0.7081902,2.35202q0.7133594,0.79089,2.1297396,0.79089q0.553112,0,0.9873308,-0.093q0.4342188,-0.0982,0.7805599,-0.29982z" style="fill: gold; stroke: none" transform="scale(2.0,0)" />
	</g>
	<g transform="translate(376,110)">
		<path d="m6.3,0.72v1.10105q-0.5272656,-0.49108,-1.1269011,-0.73403q-0.5944661,-0.24296,-1.2664714,-0.24296q-1.3233333,0,-2.0263542,0.81158q-0.7030209,0.8064,-0.7030209,2.33651q0,1.52493,0.7030209,2.33651q0.7030209,0.8064,2.0263542,0.8064q0.6720053,0,1.2664714,-0.24295q0.5996355,-0.24296,1.1269011,-0.73404v1.09072q-0.5479427,0.37219,-1.1630859,0.55828q-0.609974,0.18609,-1.2923178,0.18609q-1.7523829,0,-2.7603907,-1.07004q-1.008,-1.075,-1.008,-2.931q0,-1.86094,1.00800788183921,-2.93098q1.0080078,-1.07521,2.7603907,-1.07521q0.6926823,0,1.3026563,0.1861q0.6151432,0.18092,1.1527474,0.54794z" style="fill: blue; stroke: none" transform="scale(2.0,0)" />
	</g>
	<g transform="translate(376,110)">
		<path d="m0,0h6.7754688v0.91198h-2.843v7.09735h-1.089v-7.09735h-2.843z" style="fill: red; stroke: none" transform="scale(2.0,0)" />
	</g>
	<g transform="translate(392,110)">
		<path d="m5.7068752,6.75v-2.07288h-1.706v-0.8581h2.7397136v3.31351q-0.6048047,0.42904,-1.3336719,0.65132q-0.7288672,0.21711,-1.5559506,0.21711q-1.8092448,0,-2.8327605,-1.05453q-1.018,-1.06,-1.018,-2.946q0,-1.89196,1.01834638183921,-2.94649q1.0235157,-1.0597,2.8327605,-1.0597q0.7547136,0,1.4318881,0.1861q0.6823438,0.18609,1.2561329,0.54794v1.11139q-0.5789584,-0.49108,-1.2302865,-0.7392q-0.6513282,-0.24813,-1.3698569,-0.24813q-1.4163802,0,-2.1297396,0.7909q-0.7081902,0.7909,-0.7081902,2.35719q0,1.56112,0.7081902,2.35202q0.7133594,0.79089,2.1297396,0.79089q0.553112,0,0.9873308,-0.093q0.4342188,-0.0982,0.7805599,-0.29982z" style="fill: gold; stroke: none" transform="scale(2.0,0)" />
	</g>
	<g transform="translate(392,109)">
		<path d="m6.3,0.72v1.10105q-0.5272656,-0.49108,-1.1269011,-0.73403q-0.5944661,-0.24296,-1.2664714,-0.24296q-1.3233333,0,-2.0263542,0.81158q-0.7030209,0.8064,-0.7030209,2.33651q0,1.52493,0.7030209,2.33651q0.7030209,0.8064,2.0263542,0.8064q0.6720053,0,1.2664714,-0.24295q0.5996355,-0.24296,1.1269011,-0.73404v1.09072q-0.5479427,0.37219,-1.1630859,0.55828q-0.609974,0.18609,-1.2923178,0.18609q-1.7523829,0,-2.7603907,-1.07004q-1.008,-1.075,-1.008,-2.931q0,-1.86094,1.00800788183921,-2.93098q1.0080078,-1.07521,2.7603907,-1.07521q0.6926823,0,1.3026563,0.1861q0.6151432,0.18092,1.1527474,0.54794z" style="fill: blue; stroke: none" transform="scale(2.0,0.125)" />
	</g>
	<g transform="translate(392,107)">
		<path d="m3.669375,1.05 -1.4698958,3.98588h2.945zm-0.612,-1.068h1.229l3.052,8.01h-1.126l-0.73,-2.055h-3.61l-0.7295833,2.05464h-1.143z" style="fill: lime; stroke: none" transform="scale(2.0,0.25)" />
	</g>
	<g transform="translate(392,105)">
		<path d="m0,0h6.7754688v0.91198h-2.843v7.09735h-1.089v-7.09735h-2.843z" style="fill: red; stroke: none" transform="scale(2.0,0.25)" />
	</g>
	<g transform="translate(408,109)">
		<path d="m5.7068752,6.75v-2.07288h-1.706v-0.8581h2.7397136v3.31351q-0.6048047,0.42904,-1.3336719,0.65132q-0.7288672,0.21711,-1.5559506,0.21711q-1.8092448,0,-2.8327605,-1.05453q-1.018,-1.06,-1.018,-2.946q0,-1.89196,1.01834638183921,-2.94649q1.0235157,-1.0597,2.8327605,-1.0597q0.7547136,0,1.4318881,0.1861q0.6823438,0.18609,1.2561329,0.54794v1.11139q-0.5789584,-0.49108,-1.2302865,-0.7392q-0.6513282,-0.24813,-1.3698569,-0.24813q-1.4163802,0,-2.1297396,0.7909q-0.7081902,0.7909,-0.7081902,2.35719q0,1.56112,0.7081902,2.35202q0.7133594,0.79089,2.1297396,0.79089q0.553112,0,0.9873308,-0.093q0.4342188,-0.0982,0.7805599,-0.29982z" style="fill: gold; stroke: none" transform="scale(2.0,0.125)" />
	</g>
	<g transform="translate(408,108)">
		<path d="m3.669375,1.05 -1.4698958,3.98588h2.945zm-0.612,-1.068h1.229l3.052,8.01h-1.126l-0.73,-2.055h-3.61l-0.7295833,2.05464h-1.143z" style="fill: lime; stroke: none" transform="scale(2.0,0.125)" />
	</g>
	<g transform="translate(408,106)">
		<path d="m6.3,0.72v1.10105q-0.5272656,-0.49108,-1.1269011,-0.73403q-0.5944661,-0.24296,-1.2664714,-0.24296q-1.3233333,0,-2.0263542,0.81158q-0.7030209,0.8064,-0.7030209,2.33651q0,1.52493,0.7030209,2.33651q0.7030209,0.8064,2.0263542,0.8064q0.6720053,0,1.2664714,-0.24295q0.5996355,-0.24296,1.1269011,-0.73404v1.09072q-0.5479427,0.37219,-1.1630859,0.55828q-0.609974,0.18609,-1.2923178,0.18609q-1.7523829,0,-2.7603907,-1.07004q-1.008,-1.075,-1.008,-2.931q0,-1.86094,1.00800788183921,-2.93098q1.0080078,-1.07521,2.7603907,-1.07521q0.6926823,0,1.3026563,0.1861q0.6151432,0.18092,1.1527474,0.54794z" style="fill: blue; stroke: none" transform="scale(2.0,0.25)" />
	</g>
	<g transform="translate(408,104)">
		<path d="m0,0h6.7754688v0.91198h-2.843v7.09735h-1.089v-7.09735h-2.843z" style="fill: red; stroke: none" transform="scale(2.0,0.25)" />
	</g>
	<g transform="translate(424,109)">
		<path d="m6.3,0.72v1.10105q-0.5272656,-0.49108,-1.1269011,-0.73403q-0.5944661,-0.24296,-1.2664714,-0.24296q-1.3233333,0,-2.0263542,0.81158q-0.7030209,0.8064,-0.7030209,2.33651q0,1.52493,0.7030209,2.33651q0.7030209,0.8064,2.0263542,0.8064q0.6720053,0,1.2664714,-0.24295q0.5996355,-0.24296,1.1269011,-0.73404v1.09072q-0.5479427,0.37219,-1.1630859,0.55828q-0.609974,0.18609,-1.2923178,0.18609q-1.7523829,0,-2.7603907,-1.07004q-1.008,-1.075,-1.008,-2.931q0,-1.86094,1.00800788183921,-2.93098q1.0080078,-1.07521,2.7603907,-1.07521q0.6926823,0,1.3026563,0.1861q0.6151432,0.18092,1.1527474,0.54794z" style="fill: blue; stroke: none" transform="scale(2.0,0.125)" />
	</g>
	<g transform="translate(424,108)">
		<path d="m3.669375,1.05 -1.4698958,3.98588h2.945zm-0.612,-1.068h1.229l3.052,8.01h-1.126l-0.73,-2.055h-3.61l-0.7295833,2.05464h-1.143z" style="fill: lime; stroke: none" transform="scale(2.0,0.125)" />
	</g>
	<g transform="translate(424,107)">
		<path d="m5.7068752,6.75v-2.07288h-1.706v-0.8581h2.7397136v3.31351q-0.6048047,0.42904,-1.3336719,0.65132q-0.7288672,0.21711,-1.5559506,0.21711q-1.8092448,0,-2.8327605,-1.05453q-1.018,-1.06,-1.018,-2.946q0,-1.89196,1.01834638183921,-2.94649q1.0235157,-1.0597,2.8327605,-1.0597q0.7547136,0,1.4318881,0.1861q0.6823438,0.18609,1.2561329,0.54794v1.11139q-0.5789584,-0.49108,-1.2302865,-0.7392q-0.6513282,-0.24813,-1.3698569,-0.24813q-1.4163802,0,-2.1297396,0.7909q-0.7081902,0.7909,-0.7081902,2.35719q0,1.56112,0.7081902,2.35202q0.7133594,0.79089,2.1297396,0.79089q0.553112,0,0.9873308,-0.093q0.4342188,-0.0982,0.7805599,-0.29982z" style="fill: gold; stroke: none" transform="scale(2.0,0.125)" />
	</g>
	<g transform="translate(424,105)">
		<path d="m0,0h6.7754688v0.91198h-2.843v7.09735h-1.089v-7.09735h-2.843z" style="fill: red; stroke: none" transform="scale(2.0,0.25)" />
	</g>
	<g transform="translate(440,109)">
		<path d="m3.669375,1.05 -1.4698958,3.98588h2.945zm-0.612,-1.068h1.229l3.052,8.01h-1.126l-0.73,-2.055h-3.61l-0.7295833,2.05464h-1.143z" style="fill: lime; stroke: none" transform="scale(2.0,0.125)" />
	</g>
	<g transform="translate(440,108)">
		<path d="m6.3,0.72v1.10105q-0.5272656,-0.49108,-1.1269011,-0.73403q-0.5944661,-0.24296,-1.2664714,-0.24296q-1.3233333,0,-2.0263542,0.81158q-0.7030209,0.8064,-0.7030209,2.33651q0,1.52493,0.7030209,2.33651q0.7030209,0.8064,2.0263542,0.8064q0.6720053,0,1.2664714,-0.24295q0.5996355,-0.24296,1.1269011,-0.73404v1.09072q-0.5479427,0.37219,-1.1630859,0.55828q-0.609974,0.18609,-1.2923178,0.18609q-1.7523829,0,-2.7603907,-1.07004q-1.008,-1.075,-1.008,-2.931q0,-1.86094,1.00800788183921,-2.93098q1.0080078,-1.07521,2.7603907,-1.07521q0.6926823,0,1.3026563,0.1861q0.6151432,0.18092,1.1527474,0.54794z" style="fill: blue; stroke: none" transform="scale(2.0,0.125)" />
	</g>
	<g transform="translate(440,105)">
		<path d="m5.7068752,6.75v-2.07288h-1.706v-0.8581h2.7397136v3.31351q-0.6048047,0.42904,-1.3336719,0.65132q-0.7288672,0.21711,-1.5559506,0.21711q-1.8092448,0,-2.8327605,-1.05453q-1.018,-1.06,-1.018,-2.946q0,-1.89196,1.01834638183921,-2.94649q1.0235157,-1.0597,2.8327605,-1.0597q0.7547136,0,1.4318881,0.1861q0.6823438,0.18609,1.2561329,0.54794v1.11139q-0.5789584,-0.49108,-1.2302865,-0.7392q-0.6513282,-0.24813,-1.3698569,-0.24813q-1.4163802,0,-2.1297396,0.7909q-0.7081902,0.7909,-0.7081902,2.35719q0,1.56112,0.7081902,2.35202q0.7133594,0.79089,2.1297396,0.79089q0.553112,0,0.9873308,-0.093q0.4342188,-0.0982,0.7805599,-0.29982z" style="fill: gold; stroke: none" transform="scale(2.0,0.375)" />
	</g>
	<g transform="translate(440,102)">
		<path d="m0,0h6.7754688v0.91198h-2.843v7.09735h-1.089v-7.09735h-2.843z" style="fill: red; stroke: none" transform="scale(2.0,0.375)" />
	</g>
	<g transform="translate( 448, 110 )">
		<linearGradient id="gradient_last">
			<stop offset="0%" style="stop-color: white; stop-opacity: 0" />
			<stop offset="50%" style="stop-color: red; stop-opacity: 0" />
			<stop offset="100%" style="stop-color: white; stop-opacity: 0" />
		</linearGradient>
		<rect height="20" style="fill:url(#gradient_last)" width="16" />
	</g>
	<g style="font-size: 8px; stroke: black" transform="translate(40, 10)">
		<line x1="0" x2="0" y1="0" y2="100" />
		<line x1="-5" x2="0" y1="0" y2="0" />
		<text style="stroke: none" x="-20" y="2">2.0</text>
		<line x1="-5" x2="0" y1="50" y2="50" />
		<text style="stroke: none" x="-20" y="52">1.0</text>
		<line x1="-5" x2="0" y1="100" y2="100" />
		<text style="stroke: none" x="-20" y="102">0</text>
	</g>
	<text style="stroke: none" transform="rotate(-90)" x="-66" y="10">bits</text>
	<!--
	Generated using the Perl SVG Module V2.84
	by Ronan Oger
	Info: http://www.roitsystems.com/
	-->
</svg>